<?xml version="1.0" encoding="UTF-8"?>
<!-- Generated by Pixelmator Pro 2.4.3 -->
<svg width="400" height="400" viewBox="0 0 400 400" xmlns="http://www.w3.org/2000/svg" xmlns:xlink="http://www.w3.org/1999/xlink">
    <path id="CSlogo" fill="#000000" fill-rule="evenodd" stroke="none" d="M 114.892578 399.998047 C 21.972755 399.603485 -33.879341 307.797791 22.804688 200 C -49.750866 62.018768 62.074753 -49.761505 200.007813 22.826172 C 337.940979 -49.761505 449.766388 62.018768 377.179688 200 C 449.766388 337.98114 337.940979 449.760925 200.007813 377.173828 C 169.834961 393.052246 140.910126 400.108521 114.892578 399.998047 Z M 196.466797 336 C 227.366135 336 252.61232 329.970398 272.207031 317.912109 C 295.067505 303.844116 306.498047 282.994873 306.498047 255.361328 C 306.498047 230.74234 296.199158 210.769379 275.599609 195.445313 C 262.034027 185.647964 240.302689 175.977768 210.408203 166.431641 C 189.306198 159.900055 175.742035 155.251633 169.712891 152.488281 C 150.369385 144.198227 140.697266 135.909241 140.697266 127.619141 C 140.697266 114.80722 145.218018 105.512299 154.261719 99.734375 C 163.30542 93.956451 178.003204 91.066406 198.351563 91.066406 C 218.699921 91.066406 234.399719 95.463348 245.453125 104.255859 C 253.491974 110.787445 260.148315 121.086273 265.423828 135.154297 L 301.222656 120.458984 C 293.686218 99.859436 283.762634 84.660645 271.453125 74.863281 C 254.119339 60.795258 229.753342 53.761719 198.351563 53.761719 C 170.718018 53.761719 148.359909 59.288361 131.277344 70.341797 C 110.929001 83.153748 100.753906 102.246521 100.753906 127.619141 C 100.753906 148.46994 109.923073 165.425156 128.261719 178.488281 C 140.068771 186.778336 159.413071 195.195053 186.292969 203.736328 C 208.651047 211.021545 224.728058 217.17688 234.525391 222.201172 C 255.376175 232.500931 265.800781 243.55426 265.800781 255.361328 C 265.800781 268.675659 260.022675 279.100281 248.466797 286.636719 C 236.157303 294.675568 218.824875 298.695313 196.466797 298.695313 C 160.291946 298.695313 137.430893 280.732208 127.884766 244.808594 L 92.841797 259.128906 C 105.90493 310.376587 140.446045 336 196.466797 336 Z M 103.386719 243.292969 C 104.286644 243.290726 105.189804 243.23761 106.091797 243.130859 C 115.713058 241.992203 123.409981 235.019989 125.6875 225.382813 C 127.965012 215.745667 124.38858 205.280457 116.582031 198.740234 L 114.824219 200.927734 C 106.145851 186.808197 108 173 108 173 L 107.625 173.230469 C 97.942253 179.181824 96.582031 196.910156 96.582031 196.910156 L 91.255859 190.767578 C 89.9543 198.745316 84.257813 205.039063 84.257813 205.039063 L 82.15625 201.621094 C 75.992355 209.785797 75.679573 221.375534 81.371094 230.628906 C 86.254608 238.540359 94.687416 243.314697 103.386719 243.292969 Z M 101.826172 239.025391 C 96.391304 239.020432 90.935356 236.095642 87.726563 230.875 C 82.950684 223.104752 84.960304 213.191315 92.214844 208.732422 C 99.469383 204.273514 109.222168 206.958252 113.998047 214.728516 C 118.773911 222.498764 116.764305 232.412186 109.509766 236.871094 C 107.129372 238.334167 104.480408 239.027817 101.826172 239.025391 Z M 103.738281 228.244141 C 104.027061 228.237167 104.315125 228.157303 104.574219 227.998047 C 105.403305 227.488464 105.631744 226.354813 105.085938 225.466797 C 104.540115 224.578766 103.426743 224.271667 102.597656 224.78125 C 101.768562 225.290848 101.538162 226.424469 102.083984 227.3125 C 102.459229 227.923004 103.102966 228.259491 103.738281 228.244141 Z M 94.275391 222.925781 C 94.871208 222.941177 95.467583 222.793289 96.001953 222.464844 C 97.556503 221.509369 97.988243 219.385757 96.964844 217.720703 C 95.941437 216.055649 93.851425 215.480072 92.296875 216.435547 C 90.74234 217.391022 90.310577 219.516571 91.333984 221.181641 C 92.005592 222.274338 93.137917 222.896393 94.275391 222.925781 Z"/>
</svg>
